<svg width="35" height="29" viewBox="0 0 35 29" fill="none" xmlns="http://www.w3.org/2000/svg">
<path d="M34.5811 9.76553L8.81892 0.829306C8.48941 0.7153 8.12331 0.873058 8.00181 1.18182C8.00154 1.18207 8.00154 1.18232 8.00128 1.18257L5.1494 8.45071C5.02817 8.75948 5.1972 9.102 5.52698 9.2155H5.52751L8.51371 10.2421L7.85574 11.9204C7.73478 12.2292 7.90381 12.5712 8.23359 12.6847L14.207 14.738L13.768 15.8569C13.3691 16.8589 13.7413 17.987 14.6749 18.6032V21.6434H6.11338C5.69895 20.7564 4.85086 20.1123 3.83802 19.9158V18.6648C3.83802 18.3357 3.55336 18.069 3.20169 18.069H0.636332C0.284921 18.069 0 18.3357 0 18.6648V28.1965C0 28.5258 0.284921 28.7923 0.636332 28.7923H3.20169C3.55336 28.7923 3.83802 28.5258 3.83802 28.1965V26.9457C4.85086 26.7489 5.69895 26.1051 6.11338 25.2178H14.6749V25.8136C14.6749 26.8007 15.5294 27.601 16.5836 27.601C17.6378 27.601 18.4926 26.8007 18.4926 25.8136V19.214C19.071 18.9455 19.5177 18.4797 19.7404 17.9122L20.1794 16.7934L25.5553 18.6403C25.6255 18.6645 25.6995 18.6768 25.7742 18.6768C26.041 18.6768 26.2797 18.521 26.3718 18.2865L26.6103 17.6782C28.6809 18.043 30.675 16.7672 31.0644 14.8288C31.2083 14.1125 31.1148 13.3722 30.7965 12.7072L34.6538 10.8528C34.9665 10.7028 35.0901 10.3438 34.9299 10.051C34.8572 9.91804 34.7339 9.81553 34.5843 9.76378L34.5811 9.76553ZM15.9473 19.146L16.4741 19.3248C16.7139 19.4053 16.9655 19.4515 17.2199 19.4618V21.6434H15.9473V19.146ZM2.56562 27.601H1.27266V19.2605H2.56562V27.601ZM5.11068 24.0265C5.10961 24.7836 4.60012 25.4584 3.83802 25.7119V21.1496C4.60012 21.4029 5.10961 22.0777 5.11068 22.835V24.0265ZM6.4031 22.835H17.2199V24.0265H6.4031V22.835ZM16.5836 26.4094C16.2322 26.4094 15.9473 26.1426 15.9473 25.8136V25.2178H17.2199V25.8136C17.2199 26.1426 16.935 26.4094 16.5836 26.4094ZM18.985 16.3831L18.546 17.5019C18.3035 18.119 17.5727 18.4355 16.9131 18.209L15.7163 17.7985C15.0567 17.5717 14.7181 16.8872 14.9603 16.2694C14.9603 16.2694 14.9603 16.2694 14.9603 16.2691L15.3996 15.1511L18.6248 16.2596L18.985 16.3831ZM25.3969 17.3184L9.2694 11.7736L9.70866 10.6548L19.2651 13.9405C19.4913 14.0175 19.745 13.9693 19.9209 13.8152L21.7066 12.2414L26.7128 13.963L25.3969 17.3184ZM29.699 14.9901C29.2958 16.0079 28.2114 16.6439 27.0576 16.5391L28.0408 14.0315L29.6467 13.2572C29.898 13.8077 29.9167 14.4273 29.699 14.9901ZM27.5513 12.9302C27.5177 12.9329 27.4843 12.9384 27.4514 12.9467L21.7784 10.9963C21.5522 10.9186 21.2985 10.9668 21.1228 11.1214L19.3351 12.6954L6.56332 8.3042L8.97567 2.15438L32.783 10.4126L27.5513 12.9302Z" fill="#E3B873"/>
<path d="M12.4489 8.70337L11.8877 10.1233M14.8945 9.5434L14.3333 10.9633M17.2678 10.3699L16.7065 11.7898" stroke="#E3B873" stroke-linecap="round"/>
</svg>
